<?xml version="1.0" encoding="UTF-8" standalone="no"?>
<!-- Created with Inkscape (http://www.inkscape.org/) -->

<svg
   width="392.0618"
   height="435.66754"
   viewBox="0 0 103.73302 115.27037"
   version="1.1"
   id="svg1"
   xml:space="preserve"
   xmlns="http://www.w3.org/2000/svg"
   xmlns:svg="http://www.w3.org/2000/svg"><defs
     id="defs1"><linearGradient
       id="swatch1"><stop
         style="stop-color:#000000;stop-opacity:0;"
         offset="0"
         id="stop1" /></linearGradient></defs><g
     id="layer1"
     transform="translate(-175.19508,-20.022153)"><path
       style="fill:#26364d;fill-opacity:1;fill-rule:nonzero;stroke:none;stroke-width:0.132292"
       id="path1"
       d="m -38.301246,30.780149 -4.557987,2.631555 -20.146443,11.631555 a 5.1961519,5.1961519 30 0 1 -7.794228,-4.5 l 0,-5.26311 0,-23.263109 a 5.1961519,5.1961519 150 0 1 7.794228,-4.4999998 l 4.557987,2.6315558 20.146443,11.631554 a 5.1961519,5.1961519 90 0 1 0,8.999999 z"
       transform="matrix(2.9533345,0,0,2.9533345,384.32569,0.20873141)" /><path
       id="path6"
       style="fill:#1ed760;fill-opacity:1;fill-rule:nonzero;stroke:none;stroke-width:0.390703"
       d="m 190.57574,20.022153 a 15.345975,15.345975 0 0 0 -15.34585,15.345834 v 42.124042 h 103.61488 a 15.345975,15.345975 0 0 0 -7.63571,-13.290144 l -59.49921,-34.351908 -13.4612,-7.772136 a 15.345975,15.345975 0 0 0 -7.67291,-2.055688 z" /><path
       style="fill:#17b25a;fill-opacity:1;fill-rule:nonzero;stroke:none;stroke-width:0.132254;stroke-opacity:1"
       d="m 175.22989,77.931875 103.68797,-0.05833 c 0,0 0.0231,-0.679991 -8e-5,-1.017675 -0.0341,-0.490669 -0.15092,-0.932135 -0.22674,-1.418126 -0.0399,-0.255742 -0.0649,-0.548608 -0.1729,-0.764783 -0.0353,-0.07075 0,0 0,0 0,0 -2.43694,-0.3561 -3.45442,-0.537069 -2.01153,-0.35777 -4.05884,-0.601601 -6.00791,-1.213135 -2.72579,-0.855231 -5.3715,-2.010345 -7.86248,-3.406529 -1.95056,-1.093275 -3.7573,-2.440837 -5.48559,-3.857961 -2.06492,-1.693131 -3.75868,-3.802286 -5.80164,-5.521688 -1.12142,-0.943808 -2.59232,-2.075468 -3.53133,-2.62134 -0.939,-0.545872 -1.18226,-0.634274 -1.93868,-0.853372 -0.75642,-0.219098 -1.73875,-0.327219 -2.57773,-0.387667 -0.83899,-0.06045 -1.51238,-0.09349 -2.44006,0.01323 -0.92767,0.106721 -2.21668,0.367945 -3.08364,0.701455 -0.86696,0.33351 -1.49666,0.750146 -2.10307,1.178814 -0.6064,0.428668 -1.04147,0.946762 -1.53754,1.348135 -0.49606,0.401373 -0.91572,0.767476 -1.42999,1.066241 -0.44631,0.259282 -0.93085,0.452675 -1.41932,0.620165 -0.49969,0.171341 -1.01158,0.326996 -1.53617,0.390184 -0.51953,0.06258 -1.04705,0.0084 -1.56987,-0.01408 -0.61788,-0.02655 -1.24434,-0.01697 -1.84983,-0.142576 -0.48189,-0.09996 -0.9491,-0.274596 -1.39548,-0.481407 -0.67925,-0.314695 -1.35507,-0.668223 -1.93087,-1.145844 -0.62871,-0.521502 -1.16042,-1.1632 -1.61751,-1.839389 -0.85298,-1.261832 -1.40033,-2.704769 -2.05838,-4.077755 -0.93058,-1.941618 -1.72711,-3.945683 -2.67147,-5.880674 -0.80339,-1.646143 -1.51006,-3.358711 -2.54584,-4.870273 -0.62165,-0.907198 -1.34695,-1.757501 -2.17559,-2.481739 -0.54087,-0.472727 -1.13486,-0.910582 -1.79661,-1.191511 -0.73023,-0.310001 -1.53221,-0.468689 -2.32458,-0.513652 -0.65967,-0.03743 -1.32624,0.06383 -1.97142,0.205944 -0.8214,0.180928 -1.64739,0.417029 -2.3871,0.816449 -0.79538,0.429477 -1.50052,1.025795 -2.14005,1.663607 -0.79548,0.793337 -1.44757,1.723255 -2.07476,2.654618 -0.8638,1.282709 -1.54032,2.681395 -2.3124,4.020997 -0.74541,1.293328 -1.40602,2.639423 -2.23991,3.877863 -0.60492,0.898368 -1.30653,1.72892 -1.99607,2.564468 -0.74521,0.903013 -1.49365,1.806885 -2.31224,2.644344 -0.72931,0.746116 -1.49722,1.458348 -2.30907,2.113883 -0.86561,0.69892 -1.78743,1.327698 -2.72168,1.93167 -0.8529,0.551379 -1.72783,1.071329 -2.62789,1.541706 -0.85677,0.447757 -1.74875,0.825004 -2.63295,1.215755 -0.94403,0.417195 -1.86484,0.904653 -2.85229,1.204799 -0.23304,0.07083 -0.59959,0.149809 -0.59959,0.149809 z"
       id="path4" /><path
       style="fill:#0a6340;fill-opacity:1;fill-rule:nonzero;stroke:none;stroke-width:0.132254;stroke-opacity:1"
       d="m 175.22985,77.931875 103.68798,0.05833 c 0,0 0.0231,0.679991 -8e-5,1.017675 -0.0341,0.490669 -0.15092,0.932135 -0.22674,1.418126 -0.0399,0.255742 -0.0649,0.548608 -0.1729,0.764783 -0.0353,0.07075 0,0 0,0 0,0 -2.43694,0.3561 -3.45442,0.537069 -2.01153,0.35777 -4.05884,0.601601 -6.00791,1.213135 -2.72579,0.855231 -5.3715,2.010345 -7.86248,3.406529 -1.95056,1.093275 -3.7573,2.440837 -5.48559,3.857961 -2.06492,1.693131 -3.75868,3.802286 -5.80164,5.521688 -1.12142,0.943808 -2.59232,2.075468 -3.53133,2.62134 -0.939,0.545872 -1.18226,0.634274 -1.93868,0.853372 -0.75642,0.219098 -1.73875,0.327219 -2.57773,0.387667 -0.83899,0.06045 -1.51238,0.09349 -2.44006,-0.01323 -0.92767,-0.106721 -2.21668,-0.367945 -3.08364,-0.701455 -0.86696,-0.33351 -1.49666,-0.750146 -2.10307,-1.178814 -0.6064,-0.428668 -1.04147,-0.946762 -1.53754,-1.348135 -0.49606,-0.401373 -0.91572,-0.767476 -1.42999,-1.066241 -0.44631,-0.259282 -0.93085,-0.452675 -1.41932,-0.620165 -0.49969,-0.171341 -1.01158,-0.326996 -1.53617,-0.390184 -0.51953,-0.06258 -1.04705,-0.0084 -1.56987,0.01408 -0.61788,0.02655 -1.24434,0.01697 -1.84983,0.142576 -0.48189,0.09996 -0.9491,0.274596 -1.39548,0.481407 -0.67925,0.314695 -1.35507,0.668223 -1.93087,1.145844 -0.62871,0.521502 -1.16042,1.1632 -1.61751,1.839389 -0.85298,1.261832 -1.40033,2.704768 -2.05838,4.077758 -0.93058,1.94162 -1.72711,3.94568 -2.67147,5.88067 -0.80339,1.64615 -1.51006,3.35871 -2.54584,4.87028 -0.62165,0.90719 -1.34695,1.7575 -2.17559,2.48173 -0.54087,0.47273 -1.13486,0.91059 -1.79661,1.19152 -0.73023,0.31 -1.53221,0.46868 -2.32458,0.51365 -0.65967,0.0374 -1.32624,-0.0638 -1.97142,-0.20595 -0.82141,-0.18092 -1.6474,-0.41703 -2.38711,-0.81645 -0.79538,-0.42947 -1.50052,-1.02579 -2.14005,-1.6636 -0.79548,-0.79334 -1.44757,-1.72326 -2.07476,-2.65462 -0.8638,-1.28271 -1.54032,-2.6814 -2.3124,-4.021 -0.74541,-1.29333 -1.40602,-2.63942 -2.23991,-3.87786 -0.60492,-0.89837 -1.30653,-1.72892 -1.99607,-2.56447 -0.74521,-0.90301 -1.49365,-1.806885 -2.31224,-2.644344 -0.72931,-0.746116 -1.49722,-1.458348 -2.30907,-2.113883 -0.86561,-0.69892 -1.78743,-1.327698 -2.72168,-1.93167 -0.8529,-0.551379 -1.72783,-1.071329 -2.62788,-1.541706 -0.85677,-0.447757 -1.74876,-0.825004 -2.63296,-1.215755 -0.94403,-0.417195 -1.86483,-0.904653 -2.85229,-1.204799 -0.23304,-0.07083 -0.59959,-0.149809 -0.59959,-0.149809 z"
       id="path4-5" /><path
       style="fill:#118b4d;fill-opacity:1;fill-rule:nonzero;stroke:none;stroke-width:0.132487"
       d="m 175.22989,77.931875 103.55964,-0.02256 c 0,0 -17.44561,-0.885911 -22.27744,-2.654294 -4.83183,-1.768383 -5.33362,-3.253513 -7.26139,-4.765421 -1.92777,-1.511908 -2.8375,-3.231353 -4.40323,-4.097364 -1.56572,-0.866011 -3.0224,-1.166092 -4.55893,-1.219165 -1.53653,-0.05307 -3.05076,0.248709 -4.4212,0.860535 -1.64483,0.734325 -2.88031,2.160675 -4.30673,3.258895 -1.02152,0.786473 -1.73985,1.755933 -2.99506,2.487647 -1.25521,0.731714 -0.95543,0.88097 -3.00806,0.96656 -2.05262,0.08559 -2.15222,-0.02647 -3.11814,-0.43579 -1.13963,-0.482925 -2.02861,-1.431704 -2.92447,-2.284047 -1.03882,-0.988348 -1.93086,-2.123174 -2.81218,-3.253426 -1.04487,-1.339987 -1.92197,-2.802719 -2.92716,-4.172534 -0.86821,-1.183128 -1.57026,-2.531391 -2.67983,-3.493283 -0.94654,-0.820563 -2.06288,-1.531069 -3.27751,-1.843101 -0.95544,-0.24545 -1.98335,-0.113903 -2.9598,0.02713 -0.99571,0.143815 -2.0462,0.299948 -2.902,0.827411 -1.38776,0.855339 -2.27627,2.33672 -3.30751,3.597268 -0.77313,0.945052 -1.43612,1.974612 -2.15139,2.963928 -1.14506,1.583789 -2.08163,3.338468 -3.42625,4.757785 -1.11159,1.173332 -2.44204,2.13076 -3.77712,3.043494 -1.31815,0.901148 -2.70009,1.726261 -4.15524,2.385315 -1.46685,0.664358 -3.01116,1.164888 -4.57194,1.563277 -1.52334,0.388837 -3.08584,0.62681 -4.64871,0.799813 -0.38378,0.04248 -0.68835,0.05555 -0.68835,0.05555 z"
       id="path3" /><path
       style="fill:#118b4d;fill-opacity:1;fill-rule:nonzero;stroke:none;stroke-width:0.132487"
       d="m 175.23001,77.909295 103.55964,0.0226 c 0,0 -17.44561,0.88591 -22.27744,2.6543 -4.83183,1.76838 -5.33362,3.25351 -7.26139,4.76542 -1.92777,1.511899 -2.8375,3.231349 -4.40323,4.097359 -1.56572,0.86601 -3.0224,1.16609 -4.55893,1.21917 -1.53653,0.0531 -3.05076,-0.24871 -4.4212,-0.86054 -1.64483,-0.73432 -2.88031,-2.16068 -4.30673,-3.2589 -1.02152,-0.786469 -1.73985,-1.755929 -2.99506,-2.487639 -1.25521,-0.73172 -0.95543,-0.88097 -3.00806,-0.96656 -2.05262,-0.0856 -2.15222,0.0265 -3.11814,0.43579 -1.13963,0.48292 -2.02861,1.4317 -2.92447,2.28405 -1.03882,0.988339 -1.93086,2.123169 -2.81218,3.253419 -1.04487,1.33999 -1.92197,2.80272 -2.92716,4.17254 -0.86821,1.18312 -1.57026,2.53139 -2.67983,3.49328 -0.94654,0.82056 -2.06288,1.53107 -3.27751,1.8431 -0.95544,0.24545 -1.98335,0.1139 -2.9598,-0.0271 -0.99571,-0.14382 -2.0462,-0.29995 -2.902,-0.82741 -1.38776,-0.85534 -2.27627,-2.33672 -3.30751,-3.59727 -0.77313,-0.94505 -1.43612,-1.97461 -2.15139,-2.96393 -1.14506,-1.58379 -2.08163,-3.33847 -3.42625,-4.75778 -1.11159,-1.173329 -2.44204,-2.130759 -3.77712,-3.043499 -1.31815,-0.90114 -2.70009,-1.72626 -4.15524,-2.38531 -1.46685,-0.66436 -3.01116,-1.16489 -4.57194,-1.56328 -1.52334,-0.38884 -3.08584,-0.62681 -4.64871,-0.79981 -0.38378,-0.0425 -0.68835,-0.0556 -0.68835,-0.0556 z"
       id="path3-0" /></g></svg>
