<?xml version="1.0" encoding="UTF-8" standalone="no"?>
<!-- Created with Inkscape (http://www.inkscape.org/) -->

<svg
   width="449.44604"
   height="260.7229"
   viewBox="0 0 118.91593 68.982934"
   version="1.1"
   id="svg1"
   xml:space="preserve"
   xmlns="http://www.w3.org/2000/svg"
   xmlns:svg="http://www.w3.org/2000/svg"><defs
     id="defs1" /><g
     id="layer1"
     transform="translate(-835.76899,-32.930446)"><g
       id="g82"><path
         style="fill:none;fill-opacity:1;stroke:#00ffff;stroke-width:13.2855;stroke-dasharray:none;stroke-opacity:1"
         id="path3-8-9"
         d="m -5.5120734,137.32442 -10e-8,-47.726788 -1e-7,-49.726783 a 0.57735027,0.57735027 150 0 1 0.8660254,-0.5 L 36.68656,63.234242 79.751217,88.097633 a 0.57735027,0.57735027 90 0 1 0,1 L 38.418609,112.96103 -4.646048,137.82442 a 0.57735027,0.57735027 30 0 1 -0.8660254,-0.5 z"
         transform="matrix(0.39830299,0,0,0.39830299,882.94557,44.379017)" /><path
         d="m 895.29771,32.930444 c -21.29945,-8e-6 -39.15193,14.996 -43.58132,34.98184 h 6.78615 c 4.26396,-16.34427 19.09307,-28.36675 36.79517,-28.36674 17.70202,1e-5 32.53062,12.02248 36.79462,28.36674 h 6.7862 c -4.4294,-19.98583 -22.2814,-34.981831 -43.58082,-34.98184 z"
         style="fill:#00ffff"
         id="path58" /><g
         id="g68"
         transform="matrix(1,0,0,0.82570485,-0.48270656,19.574854)"><path
           d="M 940.97526,98.055926 V 62.932787 c 1.32606,-0.362489 2.71514,-0.556383 4.1473,-0.556383 9.28451,0 10.04507,8.092878 10.04507,18.11797 -10e-6,10.025002 -0.76057,18.117928 -10.04507,18.117928 -1.43214,0 -2.82126,-0.193841 -4.1473,-0.556376 z"
           style="fill:#00ffff;stroke-width:0.458462"
           id="path66-2" /><rect
           style="fill:#00ffff;fill-opacity:1;stroke:none;stroke-width:0;stroke-dasharray:none;stroke-opacity:1"
           id="rect67-0"
           width="6.4671946"
           height="35.02895"
           x="-939.29523"
           y="62.979877"
           transform="scale(-1,1)" /></g><g
         id="g69"
         transform="matrix(1,0,0,0.82570485,-0.45927454,18.747943)"><path
           d="M 850.42067,99.057386 V 63.934247 c -1.32606,-0.362489 -2.71514,-0.556383 -4.1473,-0.556383 -9.28451,0 -10.04507,8.092878 -10.04507,18.11797 10e-6,10.025002 0.76057,18.117928 10.04507,18.117928 1.43214,0 2.82126,-0.193841 4.1473,-0.556376 z"
           style="fill:#00ffff;stroke-width:0.458462"
           id="path66-2-5" /><rect
           style="fill:#00ffff;fill-opacity:1;stroke:none;stroke-width:0;stroke-dasharray:none;stroke-opacity:1"
           id="rect67-0-9"
           width="6.4671946"
           height="35.02895"
           x="852.10071"
           y="63.981339" /></g></g></g></svg>
