<svg xmlns="http://www.w3.org/2000/svg" xmlns:xlink="http://www.w3.org/1999/xlink" contentStyleType="text/css" height="1071px" preserveAspectRatio="none" style="width:518px;height:1071px;background:#FFFFFF;" version="1.1" viewBox="0 0 518 1071" width="518px" zoomAndPan="magnify"><defs/><g><text fill="#000000" font-family="sans-serif" font-size="14" font-weight="bold" lengthAdjust="spacing" textLength="185.0488" x="159.8266" y="22.9951">&#9835; Flowcast: Catalog DB</text><!--class Act--><g id="elem_Act"><rect codeLine="9" fill="#F1F1F1" height="210.9688" id="Act" rx="2.5" ry="2.5" style="stroke:#181818;stroke-width:0.5;" width="211.0557" x="104.51" y="44.2969"/><ellipse cx="194.406" cy="60.2969" fill="#ADD1B2" rx="11" ry="11" style="stroke:#181818;stroke-width:1.0;"/><path d="M198.5154,66.2969 L190.7966,66.2969 L190.7966,53.9063 L198.5154,53.9063 L198.5154,56.0625 L193.2497,56.0625 L193.2497,58.7344 L198.0154,58.7344 L198.0154,60.8906 L193.2497,60.8906 L193.2497,64.1406 L198.5154,64.1406 L198.5154,66.2969 Z " fill="#000000"/><text fill="#000000" font-family="sans-serif" font-size="14" lengthAdjust="spacing" textLength="22.7637" x="214.906" y="65.1436">Act</text><line style="stroke:#181818;stroke-width:0.5;" x1="105.51" x2="314.5657" y1="76.2969" y2="76.2969"/><ellipse cx="115.51" cy="89.9453" fill="#000000" rx="3" ry="3" style="stroke:#000000;stroke-width:1.0;"/><text fill="#000000" font-family="sans-serif" font-size="14" lengthAdjust="spacing" textLength="85.0049" x="124.51" y="93.292">id : ObjectId</text><line style="stroke:#181818;stroke-width:1.0;" x1="105.51" x2="314.5657" y1="100.5938" y2="100.5938"/><text fill="#000000" font-family="sans-serif" font-size="14" lengthAdjust="spacing" textLength="95.1016" x="110.51" y="117.5889">name : String</text><text fill="#000000" font-family="sans-serif" font-size="14" lengthAdjust="spacing" textLength="115.4385" x="110.51" y="133.8857">act_type : String</text><text fill="#000000" font-family="sans-serif" font-size="14" lengthAdjust="spacing" textLength="126.0068" x="110.51" y="150.1826">biography : String</text><text fill="#000000" font-family="sans-serif" font-size="14" lengthAdjust="spacing" textLength="153.9316" x="110.51" y="166.4795">formation_date : Date</text><text fill="#000000" font-family="sans-serif" font-size="14" lengthAdjust="spacing" textLength="140.9434" x="110.51" y="182.7764">disband_date : Date</text><text fill="#000000" font-family="sans-serif" font-size="14" lengthAdjust="spacing" textLength="181.6514" x="110.51" y="199.0732">profile_picture_url : String</text><text fill="#000000" font-family="sans-serif" font-size="14" lengthAdjust="spacing" textLength="165.7715" x="110.51" y="215.3701">genres : Array&lt;Genre&gt;</text><text fill="#000000" font-family="sans-serif" font-size="14" lengthAdjust="spacing" textLength="171.0557" x="110.51" y="231.667">albums : Array&lt;Album&gt;</text><text fill="#000000" font-family="sans-serif" font-size="14" lengthAdjust="spacing" textLength="199.0557" x="110.51" y="247.9639">members : Array&lt;Member&gt;</text></g><g id="elem_Genre"><rect fill="#F1F1F1" height="60.8906" style="stroke:#181818;stroke-width:0.5;" width="136.0723" x="7" y="644.9769"/><text fill="#000000" font-family="sans-serif" font-size="14" lengthAdjust="spacing" textLength="42.7041" x="53.6841" y="659.972">Genre</text><line style="stroke:#181818;stroke-width:0.5;" x1="8" x2="142.0723" y1="665.2738" y2="665.2738"/><text fill="#000000" font-family="sans-serif" font-size="14" lengthAdjust="spacing" textLength="85.9346" x="13" y="682.2689">name String</text><text fill="#000000" font-family="sans-serif" font-size="14" lengthAdjust="spacing" textLength="124.0723" x="13" y="698.5657">description String</text></g><!--class Album--><g id="elem_Album"><rect codeLine="28" fill="#F1F1F1" height="178.375" id="Album" rx="2.5" ry="2.5" style="stroke:#181818;stroke-width:0.5;" width="163.1563" x="128.46" y="315.2669"/><ellipse cx="183.356" cy="331.2669" fill="#ADD1B2" rx="11" ry="11" style="stroke:#181818;stroke-width:1.0;"/><path d="M187.4654,337.2669 L179.7466,337.2669 L179.7466,324.8763 L187.4654,324.8763 L187.4654,327.0325 L182.1997,327.0325 L182.1997,329.7044 L186.9654,329.7044 L186.9654,331.8606 L182.1997,331.8606 L182.1997,335.1106 L187.4654,335.1106 L187.4654,337.2669 Z " fill="#000000"/><text fill="#000000" font-family="sans-serif" font-size="14" lengthAdjust="spacing" textLength="44.8643" x="203.856" y="336.1136">Album</text><line style="stroke:#181818;stroke-width:0.5;" x1="129.46" x2="290.6163" y1="347.2669" y2="347.2669"/><ellipse cx="139.46" cy="360.9153" fill="#000000" rx="3" ry="3" style="stroke:#000000;stroke-width:1.0;"/><text fill="#000000" font-family="sans-serif" font-size="14" lengthAdjust="spacing" textLength="85.0049" x="148.46" y="364.262">id : ObjectId</text><line style="stroke:#181818;stroke-width:1.0;" x1="129.46" x2="290.6163" y1="371.5638" y2="371.5638"/><text fill="#000000" font-family="sans-serif" font-size="14" lengthAdjust="spacing" textLength="82.7695" x="134.46" y="388.5589">title : String</text><text fill="#000000" font-family="sans-serif" font-size="14" lengthAdjust="spacing" textLength="128.502" x="134.46" y="404.8557">artist_id : ObjectId</text><text fill="#000000" font-family="sans-serif" font-size="14" lengthAdjust="spacing" textLength="137.0059" x="134.46" y="421.1526">release_date : Date</text><text fill="#000000" font-family="sans-serif" font-size="14" lengthAdjust="spacing" textLength="97.0635" x="134.46" y="437.4495">genre : Genre</text><text fill="#000000" font-family="sans-serif" font-size="14" lengthAdjust="spacing" textLength="146.6582" x="134.46" y="453.7464">cover_art_url : String</text><text fill="#000000" font-family="sans-serif" font-size="14" lengthAdjust="spacing" textLength="114.0439" x="134.46" y="470.0432">total_tracks : Int</text><text fill="#000000" font-family="sans-serif" font-size="14" lengthAdjust="spacing" textLength="151.1563" x="134.46" y="486.3401">songs : Array&lt;Song&gt;</text></g><g id="elem_Member"><rect fill="#F1F1F1" height="126.0781" style="stroke:#181818;stroke-width:0.5;" width="185.332" x="326.37" y="341.4169"/><text fill="#000000" font-family="sans-serif" font-size="14" lengthAdjust="spacing" textLength="57.5859" x="390.243" y="356.412">Member</text><line style="stroke:#181818;stroke-width:0.5;" x1="327.37" x2="510.702" y1="361.7138" y2="361.7138"/><text fill="#000000" font-family="sans-serif" font-size="14" lengthAdjust="spacing" textLength="95.1016" x="332.37" y="378.7089">name : String</text><text fill="#000000" font-family="sans-serif" font-size="14" lengthAdjust="spacing" textLength="126.0068" x="332.37" y="395.0057">biography : String</text><text fill="#000000" font-family="sans-serif" font-size="14" lengthAdjust="spacing" textLength="118.542" x="332.37" y="411.3026">birth_date : Date</text><text fill="#000000" font-family="sans-serif" font-size="14" lengthAdjust="spacing" textLength="173.332" x="332.37" y="427.5995">profile_picture_url : Date</text><text fill="#000000" font-family="sans-serif" font-size="14" lengthAdjust="spacing" textLength="118.2549" x="332.37" y="443.8964">start_date : Date</text><text fill="#000000" font-family="sans-serif" font-size="14" lengthAdjust="spacing" textLength="112.0205" x="332.37" y="460.1932">end_date : Date</text></g><!--class Song--><g id="elem_Song"><rect codeLine="50" fill="#F1F1F1" height="243.5625" id="Song" rx="2.5" ry="2.5" style="stroke:#181818;stroke-width:0.5;" width="292.6768" x="177.7" y="553.6369"/><ellipse cx="302.1824" cy="569.6369" fill="#ADD1B2" rx="11" ry="11" style="stroke:#181818;stroke-width:1.0;"/><path d="M306.2918,575.6369 L298.573,575.6369 L298.573,563.2463 L306.2918,563.2463 L306.2918,565.4025 L301.0262,565.4025 L301.0262,568.0744 L305.7918,568.0744 L305.7918,570.2306 L301.0262,570.2306 L301.0262,573.4806 L306.2918,573.4806 L306.2918,575.6369 Z " fill="#000000"/><text fill="#000000" font-family="sans-serif" font-size="14" lengthAdjust="spacing" textLength="35.2119" x="322.6824" y="574.4836">Song</text><line style="stroke:#181818;stroke-width:0.5;" x1="178.7" x2="469.3768" y1="585.6369" y2="585.6369"/><ellipse cx="188.7" cy="599.2853" fill="#000000" rx="3" ry="3" style="stroke:#000000;stroke-width:1.0;"/><text fill="#000000" font-family="sans-serif" font-size="14" lengthAdjust="spacing" textLength="85.0049" x="197.7" y="602.632">id : ObjectId</text><line style="stroke:#181818;stroke-width:1.0;" x1="178.7" x2="469.3768" y1="609.9338" y2="609.9338"/><text fill="#000000" font-family="sans-serif" font-size="14" lengthAdjust="spacing" textLength="78.3193" x="183.7" y="626.9289">title: String</text><text fill="#000000" font-family="sans-serif" font-size="14" lengthAdjust="spacing" textLength="81.3818" x="183.7" y="643.2257">artistid : Int</text><text fill="#000000" font-family="sans-serif" font-size="14" lengthAdjust="spacing" textLength="88.751" x="183.7" y="659.5226">albumid : Int</text><text fill="#000000" font-family="sans-serif" font-size="14" lengthAdjust="spacing" textLength="280.6768" x="183.7" y="675.8195">audiofeatures : Object&lt;AudioFeatures&gt;</text><text fill="#000000" font-family="sans-serif" font-size="14" lengthAdjust="spacing" textLength="135.7207" x="183.7" y="692.1164">genre : song_genre</text><text fill="#000000" font-family="sans-serif" font-size="14" lengthAdjust="spacing" textLength="130.0059" x="183.7" y="708.4132">releasedate : Date</text><text fill="#000000" font-family="sans-serif" font-size="14" lengthAdjust="spacing" textLength="91.0205" x="183.7" y="724.7101">duration : Int</text><text fill="#000000" font-family="sans-serif" font-size="14" lengthAdjust="spacing" textLength="122.377" x="183.7" y="741.007">tracknumber : Int</text><text fill="#000000" font-family="sans-serif" font-size="14" lengthAdjust="spacing" textLength="92.21" x="183.7" y="757.3039">lyrics : String</text><text fill="#000000" font-family="sans-serif" font-size="14" lengthAdjust="spacing" textLength="94.8828" x="183.7" y="773.6007">explicit : Bool</text><text fill="#000000" font-family="sans-serif" font-size="14" lengthAdjust="spacing" textLength="216.2412" x="183.7" y="789.8976">bitrates : Array&lt;AudioBitrate&gt;</text></g><g id="elem_AudioFeatures"><rect fill="#F1F1F1" height="207.5625" style="stroke:#181818;stroke-width:0.5;" width="181.5244" x="137.27" y="857.2069"/><text fill="#000000" font-family="sans-serif" font-size="14" lengthAdjust="spacing" textLength="101.0625" x="177.501" y="872.202">AudioFeatures</text><line style="stroke:#181818;stroke-width:0.5;" x1="138.27" x2="317.7944" y1="877.5038" y2="877.5038"/><text fill="#000000" font-family="sans-serif" font-size="14" lengthAdjust="spacing" textLength="77.3008" x="143.27" y="894.4989">tempo : Int</text><text fill="#000000" font-family="sans-serif" font-size="14" lengthAdjust="spacing" textLength="119.1982" x="143.27" y="910.7957">audiokey : String</text><text fill="#000000" font-family="sans-serif" font-size="14" lengthAdjust="spacing" textLength="71.8115" x="143.27" y="927.0926">mode : Int</text><text fill="#000000" font-family="sans-serif" font-size="14" lengthAdjust="spacing" textLength="110.4824" x="143.27" y="943.3895">loudness : Float</text><text fill="#000000" font-family="sans-serif" font-size="14" lengthAdjust="spacing" textLength="97.2207" x="143.27" y="959.6864">energy : Float</text><text fill="#000000" font-family="sans-serif" font-size="14" lengthAdjust="spacing" textLength="133.752" x="143.27" y="975.9832">danceability : Float</text><text fill="#000000" font-family="sans-serif" font-size="14" lengthAdjust="spacing" textLength="134.1348" x="143.27" y="992.2801">speechiness : Float</text><text fill="#000000" font-family="sans-serif" font-size="14" lengthAdjust="spacing" textLength="138.3525" x="143.27" y="1008.577">acousticness : Float</text><text fill="#000000" font-family="sans-serif" font-size="14" lengthAdjust="spacing" textLength="169.5244" x="143.27" y="1024.8739">instrumentalness : Float</text><text fill="#000000" font-family="sans-serif" font-size="14" lengthAdjust="spacing" textLength="104.9453" x="143.27" y="1041.1707">liveness : Float</text><text fill="#000000" font-family="sans-serif" font-size="14" lengthAdjust="spacing" textLength="102.71" x="143.27" y="1057.4676">valance : Float</text></g><g id="elem_AudioBitrate"><rect fill="#F1F1F1" height="60.8906" style="stroke:#181818;stroke-width:0.5;" width="131.7109" x="354.18" y="930.5369"/><text fill="#000000" font-family="sans-serif" font-size="14" lengthAdjust="spacing" textLength="87.2129" x="376.429" y="945.532">AudioBitrate</text><line style="stroke:#181818;stroke-width:0.5;" x1="355.18" x2="484.8909" y1="950.8338" y2="950.8338"/><text fill="#000000" font-family="sans-serif" font-size="14" lengthAdjust="spacing" textLength="78.8115" x="360.18" y="967.8289">bitrate : Int</text><text fill="#000000" font-family="sans-serif" font-size="14" lengthAdjust="spacing" textLength="119.7109" x="360.18" y="984.1257">audio_url : String</text></g><!--link Act to Genre--><g id="link_Act_Genre"><path codeLine="86" d="M134.0105,262.4198 C123.4605,281.6398 117.76,295.0269 111.04,315.2669 C72.1,432.4169 71.2191,563.9553 73.1391,626.6653 " fill="none" id="Act-Genre" style="stroke:#181818;stroke-width:1.0;"/><line style="stroke:#181818;stroke-width:1.0;" x1="132.4288" x2="139.4417" y1="256.9886" y2="260.8381"/><line style="stroke:#181818;stroke-width:1.0;" x1="130.9852" x2="137.9982" y1="259.6185" y2="263.4679"/><line style="stroke:#181818;stroke-width:1.0;" x1="134.0105" x2="137.86" y1="262.4198" y2="255.4069"/><line style="stroke:#181818;stroke-width:1.0;" x1="73.4452" x2="79.6872" y1="636.6606" y2="644.4733"/><line style="stroke:#181818;stroke-width:1.0;" x1="73.4452" x2="67.6928" y1="636.6606" y2="644.8405"/><line style="stroke:#181818;stroke-width:1.0;" x1="73.4452" x2="73.69" y1="636.6606" y2="644.6569"/><ellipse cx="73.2616" cy="630.6634" fill="none" rx="4" ry="4" style="stroke:#181818;stroke-width:1.0;"/></g><!--link Act to Album--><g id="link_Act_Album"><path codeLine="87" d="M210.04,263.7469 C210.04,283.4069 210.04,277.7769 210.04,296.8769 " fill="none" id="Act-Album" style="stroke:#181818;stroke-width:1.0;"/><line style="stroke:#181818;stroke-width:1.0;" x1="206.04" x2="214.04" y1="259.7469" y2="259.7469"/><line style="stroke:#181818;stroke-width:1.0;" x1="206.04" x2="214.04" y1="262.7469" y2="262.7469"/><line style="stroke:#181818;stroke-width:1.0;" x1="210.04" x2="210.04" y1="263.7469" y2="255.7469"/><line style="stroke:#181818;stroke-width:1.0;" x1="210.04" x2="216.04" y1="306.8769" y2="314.8769"/><line style="stroke:#181818;stroke-width:1.0;" x1="210.04" x2="204.04" y1="306.8769" y2="314.8769"/><line style="stroke:#181818;stroke-width:1.0;" x1="210.04" x2="210.04" y1="306.8769" y2="314.8769"/><ellipse cx="210.04" cy="300.8769" fill="none" rx="4" ry="4" style="stroke:#181818;stroke-width:1.0;"/></g><!--link Act to Member--><g id="link_Act_Member"><path codeLine="88" d="M301.9595,261.9109 C325.9595,290.9209 334.6671,301.457 355.9671,327.207 " fill="none" id="Act-Member" style="stroke:#181818;stroke-width:1.0;"/><line style="stroke:#181818;stroke-width:1.0;" x1="296.3277" x2="302.4918" y1="261.3786" y2="256.2791"/><line style="stroke:#181818;stroke-width:1.0;" x1="298.2401" x2="304.4041" y1="263.6901" y2="258.5906"/><line style="stroke:#181818;stroke-width:1.0;" x1="301.9595" x2="296.86" y1="261.9109" y2="255.7469"/><line style="stroke:#181818;stroke-width:1.0;" x1="362.3409" x2="372.0633" y1="334.9125" y2="337.2526"/><line style="stroke:#181818;stroke-width:1.0;" x1="362.3409" x2="362.8167" y1="334.9125" y2="344.9012"/><line style="stroke:#181818;stroke-width:1.0;" x1="362.3409" x2="367.44" y1="334.9125" y2="341.0769"/><ellipse cx="358.5166" cy="330.2892" fill="none" rx="4" ry="4" style="stroke:#181818;stroke-width:1.0;"/></g><!--link Album to Genre--><g id="link_Album_Genre"><path codeLine="89" d="M162.0613,501.0468 C135.9313,553.1068 116.203,592.3988 98.073,628.5288 " fill="none" id="Album-Genre" style="stroke:#181818;stroke-width:1.0;"/><line style="stroke:#181818;stroke-width:1.0;" x1="160.2807" x2="167.4306" y1="495.6775" y2="499.2662"/><line style="stroke:#181818;stroke-width:1.0;" x1="158.9349" x2="166.0849" y1="498.3587" y2="501.9474"/><line style="stroke:#181818;stroke-width:1.0;" x1="162.0613" x2="165.65" y1="501.0468" y2="493.8969"/><line style="stroke:#181818;stroke-width:1.0;" x1="93.588" x2="95.3627" y1="637.4666" y2="647.3079"/><line style="stroke:#181818;stroke-width:1.0;" x1="93.588" x2="84.6373" y1="637.4666" y2="641.9259"/><line style="stroke:#181818;stroke-width:1.0;" x1="93.588" x2="90" y1="637.4666" y2="644.6169"/><ellipse cx="96.279" cy="632.1039" fill="none" rx="4" ry="4" style="stroke:#181818;stroke-width:1.0;"/></g><!--link Album to Song--><g id="link_Album_Song"><path codeLine="90" d="M250.6423,501.2624 C258.6923,520.2524 257.1876,516.6832 265.6576,536.6732 " fill="none" id="Album-Song" style="stroke:#181818;stroke-width:1.0;"/><line style="stroke:#181818;stroke-width:1.0;" x1="245.3984" x2="252.7639" y1="499.1408" y2="496.0185"/><line style="stroke:#181818;stroke-width:1.0;" x1="246.5692" x2="253.9348" y1="501.9029" y2="498.7806"/><line style="stroke:#181818;stroke-width:1.0;" x1="250.6423" x2="247.52" y1="501.2624" y2="493.8969"/><line style="stroke:#181818;stroke-width:1.0;" x1="269.5589" x2="278.2045" y1="545.8808" y2="550.9061"/><line style="stroke:#181818;stroke-width:1.0;" x1="269.5589" x2="267.1555" y1="545.8808" y2="555.5877"/><line style="stroke:#181818;stroke-width:1.0;" x1="269.5589" x2="272.68" y1="545.8808" y2="553.2469"/><ellipse cx="267.2181" cy="540.3563" fill="none" rx="4" ry="4" style="stroke:#181818;stroke-width:1.0;"/></g><!--link Song to AudioBitrate--><g id="link_Song_AudioBitrate"><path codeLine="91" d="M367.5947,805.0746 C384.1047,853.8546 396.6143,890.8094 407.3443,922.4994 " fill="none" id="Song-AudioBitrate" style="stroke:#181818;stroke-width:1.0;"/><line style="stroke:#181818;stroke-width:1.0;" x1="362.5235" x2="370.1012" y1="802.5681" y2="800.0034"/><line style="stroke:#181818;stroke-width:1.0;" x1="363.4853" x2="371.063" y1="805.4098" y2="802.845"/><line style="stroke:#181818;stroke-width:1.0;" x1="367.5947" x2="365.03" y1="805.0746" y2="797.4969"/><line style="stroke:#181818;stroke-width:1.0;" x1="407.3443" x2="415.5931" y1="922.4994" y2="928.1526"/><line style="stroke:#181818;stroke-width:1.0;" x1="407.3443" x2="404.2269" y1="922.4994" y2="932.0011"/><line style="stroke:#181818;stroke-width:1.0;" x1="407.3443" x2="409.91" y1="922.4994" y2="930.0769"/><line style="stroke:#181818;stroke-width:1.0;" x1="410.4916" x2="402.9142" y1="919.3223" y2="921.8879"/></g><!--link Song to AudioFeatures--><g id="link_Song_AudioFeatures"><path codeLine="92" d="M280.4833,805.074 C273.8033,824.794 272.0776,829.9101 265.5576,849.1501 " fill="none" id="Song-AudioFeatures" style="stroke:#181818;stroke-width:1.0;"/><line style="stroke:#181818;stroke-width:1.0;" x1="277.9781" x2="285.5552" y1="800.0021" y2="802.5688"/><line style="stroke:#181818;stroke-width:1.0;" x1="277.0156" x2="284.5927" y1="802.8435" y2="805.4102"/><line style="stroke:#181818;stroke-width:1.0;" x1="280.4833" x2="283.05" y1="805.074" y2="797.4969"/><line style="stroke:#181818;stroke-width:1.0;" x1="265.5576" x2="268.6726" y1="849.1501" y2="858.6526"/><line style="stroke:#181818;stroke-width:1.0;" x1="265.5576" x2="257.3074" y1="849.1501" y2="854.8012"/><line style="stroke:#181818;stroke-width:1.0;" x1="265.5576" x2="262.99" y1="849.1501" y2="856.7269"/><line style="stroke:#181818;stroke-width:1.0;" x1="269.9879" x2="262.4111" y1="848.5397" y2="845.9721"/></g><!--SRC=[ZLHBRjim45sBf-2kG05V80WCs0rIP55qaGC853cMfw58WHpPDMmVf6VehNgI3cbzNJJjniOyaiFt6OgGBCXVFtxAP-kFMaLwa9yKAUjh-RGLueFSem59Uv2nzJJK6eEsa9RLmQEHRV2LXIRA8z9UAbTRC587Vuno1v2EnJTqhGggaHOTqAa5wGFjlH3W2EaaDvhaMKZvKNA_1_cr-WQQNWmZgnN_EDK0mwyKqDLSAqrbxZB3AlHrKEt-D0TtFZIAqBlIA4hRd_YFSOEnKixSeInaXnRA5ZLr0Seks7cp6bo0oCWc17Lw_9pATM9ZgwwPy4qg4zv0Kq6O5hxaUYskGlWiKEOMMNXMEDva8Eg0RI8-WDV9gzJ_FRSenpgtAn16Akyt1x2W8joPa5LocRbnhVq1GiajxkqWpvDIKb3wBMbySSHWzAwU5BzoDTTxSs0I_A_uAkGf-Q-G-iL8YUZo0Dpbp7G6AnE_lpjPP2D7EiNDnhmnYIroxhEoC-Xte1AhE3Pxt2JukOVNeXZyJKwLkH15dyISPM6wa2TtQ9-DTbqsi8ViAQ2Eas45V6yjQYI6jjvRKLJ8nsWsj9dDzeRcP8Pe5ZJPauAWQVr2snlCmYaQRs0auZlZ8APh-4kY6047eJvDjL5EWwhG9jj7DBO0Ue_BeqhxZctMInHTfD0r79ooonMB1rWY1sNJTIDmNQhivUVWUuF6-Sr2bvFEfzFdwN9PhVovVnOp83_7EN0RSd5xfijJSoZDdiW3c83BUS7jpuKXcjy0]--></g></svg>